<?xml version="1.0" standalone="no"?><!DOCTYPE svg PUBLIC "-//W3C//DTD SVG 1.1//EN" "http://www.w3.org/Graphics/SVG/1.1/DTD/svg11.dtd"><svg class="icon" width="200px" height="200.00px" viewBox="0 0 1024 1024" version="1.1" xmlns="http://www.w3.org/2000/svg"><path d="M848.23 835.55c-9.36 0-18.71-3.57-25.86-10.71L512 514.46 201.62 824.83c-14.29 14.29-37.43 14.29-51.71 0s-14.29-37.43 0-51.71l336.23-336.23c14.29-14.29 37.43-14.29 51.71 0l336.23 336.23c14.29 14.29 14.29 37.43 0 51.71a36.445 36.445 0 0 1-25.85 10.72z" fill="#000000" /><path d="M848.23 597.83c-9.36 0-18.71-3.57-25.86-10.71L512 276.74 201.62 587.12c-14.29 14.29-37.43 14.29-51.71 0-14.29-14.29-14.29-37.43 0-51.71l336.23-336.23c14.29-14.29 37.43-14.29 51.71 0L874.09 535.4c14.29 14.29 14.29 37.43 0 51.71-7.15 7.15-16.5 10.72-25.86 10.72z" fill="#000000" /></svg>