<?xml version="1.0" standalone="no"?><!DOCTYPE svg PUBLIC "-//W3C//DTD SVG 1.1//EN" "http://www.w3.org/Graphics/SVG/1.1/DTD/svg11.dtd"><svg t="1777970702732" class="icon" viewBox="0 0 1024 1024" version="1.1" xmlns="http://www.w3.org/2000/svg" p-id="37867" xmlns:xlink="http://www.w3.org/1999/xlink" width="32" height="32"><path d="M189.627733 635.665067a6.826667 6.826667 0 0 1-11.195733-5.7344l35.362133-491.8272a6.826667 6.826667 0 0 1 7.202134-6.314667L735.402667 162.304a6.826667 6.826667 0 0 1 3.9936 12.049067l-119.569067 100.317866a6.826667 6.826667 0 0 0-0.853333 9.6256l323.566933 385.5872a6.826667 6.826667 0 0 1-0.853333 9.608534L639.880533 932.7616a6.826667 6.826667 0 0 1-9.608533-0.836267L306.722133 546.321067a6.826667 6.826667 0 0 0-9.6256-0.853334l-107.4688 90.197334z" p-id="37868" fill="#00AFFF"></path></svg>