<?xml version="1.0" standalone="no"?><!DOCTYPE svg PUBLIC "-//W3C//DTD SVG 1.1//EN" "http://www.w3.org/Graphics/SVG/1.1/DTD/svg11.dtd"><svg t="1777967342609" class="icon" viewBox="0 0 1024 1024" version="1.1" xmlns="http://www.w3.org/2000/svg" p-id="9707" xmlns:xlink="http://www.w3.org/1999/xlink" width="32" height="32"><path d="M1019.377996 502.184049a112.556237 112.556237 0 0 0-49.865031-79.443763 119.100204 119.100204 0 0 0-92.400818-18.977505c-83.631902 17.799591-151.689162 123.026585-223.803681 234.535788-63.869121 98.813906-130.09407 201.161554-193.308793 214.511247a67.92638 67.92638 0 0 1-53.398773-12.0409 45.807771 45.807771 0 0 1-22.11861-31.93456c-11.648262-66.879346 85.202454-193.701431 170.666667-304.948875 113.99591-148.940695 221.709611-289.635992 132.842536-358.08589-103.002045-79.312883-201.685072 45.807771-288.719837 156.269939-58.372188 73.94683-124.466258 157.709611-159.411043 132.057259-26.175869-19.631902-3.92638-80.229039 18.19223-138.993865 28.400818-75.648262 60.597137-161.374233-1.439673-207.96728a73.161554 73.161554 0 0 0-64.523518-13.087934C103.876973 98.159509 21.030348 280.343558 5.324826 316.728016A29.186094 29.186094 0 0 0 58.854479 340.286299c34.421268-79.443763 103.132924-196.319018 148.024539-209.406953a15.051125 15.051125 0 0 1 14.658487 2.879345c27.092025 20.417178 4.188139 81.537832-18.192229 140.826176-28.400818 75.386503-60.466258 160.719836 1.96319 206.527607 80.490798 59.026585 161.374233-43.713701 239.640082-143.051124 87.820041-111.509202 154.175869-187.288344 207.443763-146.192229 42.797546 32.981595-65.439673 173.807771-143.96728 276.548057-101.169734 132.842536-197.235174 258.355828-181.529653 350.233129A103.132924 103.132924 0 0 0 374.666339 889.97955a125.644172 125.644172 0 0 0 97.374234 20.155419c86.903885-18.453988 157.055215-126.03681 230.085889-239.90184 62.429448-96.588957 127.083845-196.319018 187.026585-209.406953a61.251534 61.251534 0 0 1 48.425358 10.862986 53.529652 53.529652 0 0 1 24.212679 39.263803c16.229039 104.703476-136.638037 319.345603-196.319019 392.638037a29.186094 29.186094 0 1 0 45.153375 36.907976 1651.566462 1651.566462 0 0 0 111.90184-158.364009c74.208589-120.147239 106.928425-214.511247 96.850716-279.95092z" fill="#00AFFF" p-id="9708"></path></svg>