<?xml version="1.0" standalone="no"?><!DOCTYPE svg PUBLIC "-//W3C//DTD SVG 1.1//EN" "http://www.w3.org/Graphics/SVG/1.1/DTD/svg11.dtd"><svg t="1777969992394" class="icon" viewBox="0 0 1024 1024" version="1.1" xmlns="http://www.w3.org/2000/svg" p-id="22421" xmlns:xlink="http://www.w3.org/1999/xlink" width="32" height="32"><path d="M704.23893333 343.71002482c-2.80483271-87.38133333-63.32449678-158.79669419-144.01738296-115.21390592-28.58772025 15.42658162-44.12217913 45.20096085-72.38626532 61.05905493-25.9986432 14.56355555-58.46997902 16.50536334-88.89162752 16.39748494-61.49056739-0.2157568-133.01380779-22.65441963-151.56885618 47.5742811-12.62174777 47.7900379 60.08815161 78.31956594 42.28825088 124.38355286-5.50178816 14.34779875-22.76229803 25.02773987-36.89434112 33.98162887-35.16829013 22.33078557-61.27481173 41.42522482-87.27345493 73.14141298-48.65306283 59.33300395-52.10516594 86.94982087-35.16829013 124.27567331 18.44716999 40.45432149 87.48921173 78.4274432 144.77253062 59.44088235 68.71840654-22.76229803 62.24571506-71.30748359 138.73135162-96.55097913 64.51115691-21.25200384 84.14498816 24.27259221 108.41757923 61.5984458 45.63247445 70.22870073 134.30834517 67.63962482 194.72013198 6.58056988 19.63383011-19.84958691 53.18394766-63.32449678 46.60337778-91.69646137-5.39390976-22.97805483-41.53310322-36.78646272-59.00936989-52.3209216-61.59844579-54.69424185 41.85673728-74.32807197 96.11946667-94.39341568 51.88940914-19.20231765 135.4950053-58.68573469 107.87818951-129.88533987-9.49328099-24.38047061-75.62261049-46.27974371-102.16064455-37.75736605-37.64948765 11.97447851-101.08186283 43.15127581-102.16064569 9.3854026z m0 0" p-id="22422" fill="#00AFFF"></path></svg>