<?xml version="1.0" standalone="no"?><!DOCTYPE svg PUBLIC "-//W3C//DTD SVG 1.1//EN" "http://www.w3.org/Graphics/SVG/1.1/DTD/svg11.dtd"><svg t="1777970014815" class="icon" viewBox="0 0 1024 1024" version="1.1" xmlns="http://www.w3.org/2000/svg" p-id="23768" xmlns:xlink="http://www.w3.org/1999/xlink" width="32" height="32"><path d="M596.48 797.013333c-89.6 0.853333-177.493333-18.773333-257.706667-57.173333-54.613333-33.28-96.426667-83.626667-121.173333-142.506667-28.16-60.586667-44.373333-125.44-49.493333-192C162.133333 326.826667 179.2 270.506667 213.333333 245.76c21.333333-16.213333 46.933333-26.453333 74.24-27.306667 54.613333 0 91.306667 47.786667 130.56 98.133334 33.28 52.906667 80.213333 94.72 137.386667 121.173333 34.133333 11.093333 69.973333 18.773333 105.813333 23.893333 49.493333 4.266667 97.28 19.626667 139.946667 45.226667 20.48 15.36 36.693333 36.693333 45.226667 60.586667 10.24 31.573333 13.653333 64 11.093333 97.28-1.706667 29.866667-18.773333 72.533333-87.04 101.546666-56.32 21.333333-115.2 31.573333-174.08 30.72" fill="#00AFFF" p-id="23769"></path><path d="M297.813333 270.506667c-17.92 0.853333-34.986667 7.68-48.64 18.773333-20.48 14.506667-30.72 59.733333-27.306666 117.76 4.266667 58.88 18.773333 116.053333 43.52 168.96 19.626667 48.64 53.76 90.453333 98.986666 117.76 70.826667 34.133333 149.333333 51.2 227.84 50.346667 119.466667 0 205.653333-36.693333 209.066667-89.6 7.68-124.586667-56.32-136.533333-154.453333-152.746667-35.84-5.12-71.68-13.653333-106.666667-24.746667-61.44-26.453333-112.64-71.68-148.48-128-32.426667-41.813333-60.586667-78.506667-93.866667-78.506666z" fill="#00AFFF" p-id="23770"></path></svg>